<svg xmlns="http://www.w3.org/2000/svg" viewBox="0 0 512 512" width="512" height="512">
  <defs>
    <linearGradient id="bg" x1="0" y1="0" x2="1" y2="1">
      <stop offset="0" stop-color="#6a5cff"/><stop offset="1" stop-color="#a638ff"/>
    </linearGradient>
    <linearGradient id="gloss" x1="0" y1="0" x2="0" y2="1">
      <stop offset="0" stop-color="#fff" stop-opacity="0.28"/>
      <stop offset="0.5" stop-color="#fff" stop-opacity="0"/>
    </linearGradient>
    <filter id="card" x="-30%" y="-30%" width="160%" height="160%">
      <feDropShadow dx="0" dy="10" stdDeviation="14" flood-color="#2a0a4a" flood-opacity="0.35"/>
    </filter>
    <filter id="soft" x="-30%" y="-30%" width="160%" height="160%">
      <feDropShadow dx="0" dy="6" stdDeviation="8" flood-color="#2a0a4a" flood-opacity="0.28"/>
    </filter>
  </defs>
  <rect width="512" height="512" rx="114" fill="url(#bg)"/>
  <rect width="512" height="512" rx="114" fill="url(#gloss)"/>
  <g transform="rotate(-12 256 256)">
    <rect x="150" y="150" width="212" height="212" rx="30" fill="#fff" opacity="0.3" filter="url(#soft)"/>
    <rect x="176" y="176" width="212" height="212" rx="30" fill="#fff" opacity="0.55" filter="url(#soft)"/>
    <rect x="128" y="128" width="212" height="212" rx="30" fill="#fff" filter="url(#card)"/>
    <g fill="none" stroke="#7a4cff" stroke-width="18" stroke-linecap="round" stroke-linejoin="round">
      <path d="M162 198 V178 A8 8 0 0 1 170 170 H190"/>
      <path d="M278 170 H298 A8 8 0 0 1 306 178 V198"/>
      <path d="M306 270 V290 A8 8 0 0 1 298 298 H278"/>
      <path d="M190 298 H170 A8 8 0 0 1 162 290 V270"/>
    </g>
  </g>
</svg>
